<mxfile host="app.diagrams.net" modified="2024-03-30T07:47:55.713Z" agent="Mozilla/5.0 (Windows NT 10.0; Win64; x64) AppleWebKit/537.36 (KHTML, like Gecko) Chrome/123.0.0.0 Safari/537.36" etag="IqiUAonhPprCSBhffwE9" version="24.0.7" type="device" pages="4">
  <diagram name="dependencies" id="GcTfCCmbAsJoJ7cS-uKz">
    <mxGraphModel dx="1221" dy="626" grid="1" gridSize="10" guides="1" tooltips="1" connect="1" arrows="1" fold="1" page="1" pageScale="1" pageWidth="850" pageHeight="1100" math="0" shadow="0">
      <root>
        <mxCell id="0" />
        <mxCell id="1" parent="0" />
        <mxCell id="XifE5th3h0cLakkx9GpO-34" value="" style="endArrow=classic;html=1;rounded=0;exitX=0;exitY=1;exitDx=0;exitDy=0;" parent="1" source="XifE5th3h0cLakkx9GpO-9" edge="1">
          <mxGeometry width="50" height="50" relative="1" as="geometry">
            <mxPoint x="250" y="150" as="sourcePoint" />
            <mxPoint x="530" y="80" as="targetPoint" />
          </mxGeometry>
        </mxCell>
        <mxCell id="XifE5th3h0cLakkx9GpO-35" value="" style="endArrow=classic;html=1;rounded=0;exitX=0;exitY=1;exitDx=0;exitDy=0;" parent="1" edge="1">
          <mxGeometry width="50" height="50" relative="1" as="geometry">
            <mxPoint x="120" y="120" as="sourcePoint" />
            <mxPoint x="530" y="120" as="targetPoint" />
          </mxGeometry>
        </mxCell>
        <mxCell id="XifE5th3h0cLakkx9GpO-36" value="" style="endArrow=classic;html=1;rounded=0;exitX=0;exitY=1;exitDx=0;exitDy=0;" parent="1" edge="1">
          <mxGeometry width="50" height="50" relative="1" as="geometry">
            <mxPoint x="120" y="159.5" as="sourcePoint" />
            <mxPoint x="530" y="159.5" as="targetPoint" />
          </mxGeometry>
        </mxCell>
        <mxCell id="XifE5th3h0cLakkx9GpO-9" value="&lt;b&gt;Entity A&lt;/b&gt;" style="text;html=1;align=center;verticalAlign=middle;whiteSpace=wrap;rounded=0;" parent="1" vertex="1">
          <mxGeometry x="120" y="50" width="60" height="30" as="geometry" />
        </mxCell>
        <mxCell id="XifE5th3h0cLakkx9GpO-10" value="&lt;b&gt;Entity B&lt;/b&gt;" style="text;html=1;align=center;verticalAlign=middle;whiteSpace=wrap;rounded=0;" parent="1" vertex="1">
          <mxGeometry x="120" y="90" width="60" height="30" as="geometry" />
        </mxCell>
        <mxCell id="XifE5th3h0cLakkx9GpO-11" value="&lt;b&gt;Entity C&lt;/b&gt;" style="text;html=1;align=center;verticalAlign=middle;whiteSpace=wrap;rounded=0;" parent="1" vertex="1">
          <mxGeometry x="120" y="130" width="60" height="30" as="geometry" />
        </mxCell>
        <mxCell id="XifE5th3h0cLakkx9GpO-13" value="&lt;i&gt;time&lt;/i&gt;" style="text;html=1;align=center;verticalAlign=middle;whiteSpace=wrap;rounded=0;" parent="1" vertex="1">
          <mxGeometry x="330" y="180" width="60" height="30" as="geometry" />
        </mxCell>
        <mxCell id="XifE5th3h0cLakkx9GpO-14" value="&lt;i&gt;entities&lt;/i&gt;" style="text;html=1;align=center;verticalAlign=middle;whiteSpace=wrap;rounded=0;rotation=-91;" parent="1" vertex="1">
          <mxGeometry x="70" y="100" width="60" height="30" as="geometry" />
        </mxCell>
        <mxCell id="XifE5th3h0cLakkx9GpO-4" value="" style="ellipse;whiteSpace=wrap;html=1;aspect=fixed;fillColor=#60a917;fontColor=#ffffff;strokeColor=#2D7600;" parent="1" vertex="1">
          <mxGeometry x="230" y="70" width="20" height="20" as="geometry" />
        </mxCell>
        <mxCell id="XifE5th3h0cLakkx9GpO-18" value="" style="ellipse;whiteSpace=wrap;html=1;aspect=fixed;fillColor=#60a917;fontColor=#ffffff;strokeColor=#2D7600;" parent="1" vertex="1">
          <mxGeometry x="230" y="110" width="20" height="20" as="geometry" />
        </mxCell>
        <mxCell id="XifE5th3h0cLakkx9GpO-20" value="" style="ellipse;whiteSpace=wrap;html=1;aspect=fixed;fillColor=#60a917;fontColor=#ffffff;strokeColor=#2D7600;" parent="1" vertex="1">
          <mxGeometry x="310" y="150" width="20" height="20" as="geometry" />
        </mxCell>
        <mxCell id="XifE5th3h0cLakkx9GpO-22" value="" style="ellipse;whiteSpace=wrap;html=1;aspect=fixed;fillColor=#60a917;fontColor=#ffffff;strokeColor=#2D7600;" parent="1" vertex="1">
          <mxGeometry x="310" y="70" width="20" height="20" as="geometry" />
        </mxCell>
        <mxCell id="XifE5th3h0cLakkx9GpO-24" value="" style="ellipse;whiteSpace=wrap;html=1;aspect=fixed;fillColor=#60a917;fontColor=#ffffff;strokeColor=#2D7600;" parent="1" vertex="1">
          <mxGeometry x="310" y="110" width="20" height="20" as="geometry" />
        </mxCell>
        <mxCell id="XifE5th3h0cLakkx9GpO-25" value="" style="ellipse;whiteSpace=wrap;html=1;aspect=fixed;fillColor=#60a917;fontColor=#ffffff;strokeColor=#2D7600;" parent="1" vertex="1">
          <mxGeometry x="390" y="70" width="20" height="20" as="geometry" />
        </mxCell>
        <mxCell id="XifE5th3h0cLakkx9GpO-26" value="" style="ellipse;whiteSpace=wrap;html=1;aspect=fixed;fillColor=#60a917;fontColor=#ffffff;strokeColor=#2D7600;" parent="1" vertex="1">
          <mxGeometry x="390" y="110" width="20" height="20" as="geometry" />
        </mxCell>
        <mxCell id="XifE5th3h0cLakkx9GpO-32" value="" style="ellipse;whiteSpace=wrap;html=1;aspect=fixed;fillColor=#60a917;fontColor=#ffffff;strokeColor=#2D7600;" parent="1" vertex="1">
          <mxGeometry x="470" y="70" width="20" height="20" as="geometry" />
        </mxCell>
        <mxCell id="XifE5th3h0cLakkx9GpO-33" value="" style="ellipse;whiteSpace=wrap;html=1;aspect=fixed;fillColor=#60a917;fontColor=#ffffff;strokeColor=#2D7600;" parent="1" vertex="1">
          <mxGeometry x="470" y="110" width="20" height="20" as="geometry" />
        </mxCell>
        <mxCell id="XifE5th3h0cLakkx9GpO-37" value="" style="rounded=1;whiteSpace=wrap;html=1;rotation=-90;fillColor=none;" parent="1" vertex="1">
          <mxGeometry x="180" y="85" width="120" height="60" as="geometry" />
        </mxCell>
        <mxCell id="XifE5th3h0cLakkx9GpO-38" value="" style="rounded=1;whiteSpace=wrap;html=1;rotation=-90;fillColor=none;" parent="1" vertex="1">
          <mxGeometry x="260" y="85" width="120" height="60" as="geometry" />
        </mxCell>
        <mxCell id="XifE5th3h0cLakkx9GpO-39" value="" style="rounded=1;whiteSpace=wrap;html=1;rotation=-90;fillColor=none;" parent="1" vertex="1">
          <mxGeometry x="340" y="85" width="120" height="60" as="geometry" />
        </mxCell>
        <mxCell id="XifE5th3h0cLakkx9GpO-40" value="" style="rounded=1;whiteSpace=wrap;html=1;rotation=-90;fillColor=none;" parent="1" vertex="1">
          <mxGeometry x="420" y="85" width="120" height="60" as="geometry" />
        </mxCell>
        <mxCell id="XifE5th3h0cLakkx9GpO-42" value="commit n" style="text;html=1;align=center;verticalAlign=middle;whiteSpace=wrap;rounded=0;" parent="1" vertex="1">
          <mxGeometry x="210" y="20" width="60" height="50" as="geometry" />
        </mxCell>
        <mxCell id="XifE5th3h0cLakkx9GpO-43" value="commit n+1" style="text;html=1;align=center;verticalAlign=middle;whiteSpace=wrap;rounded=0;" parent="1" vertex="1">
          <mxGeometry x="285" y="20" width="70" height="50" as="geometry" />
        </mxCell>
        <mxCell id="XifE5th3h0cLakkx9GpO-44" value="commit n+2" style="text;html=1;align=center;verticalAlign=middle;whiteSpace=wrap;rounded=0;" parent="1" vertex="1">
          <mxGeometry x="365" y="20" width="70" height="50" as="geometry" />
        </mxCell>
        <mxCell id="XifE5th3h0cLakkx9GpO-45" value="commit n+3" style="text;html=1;align=center;verticalAlign=middle;whiteSpace=wrap;rounded=0;" parent="1" vertex="1">
          <mxGeometry x="445" y="20" width="70" height="50" as="geometry" />
        </mxCell>
      </root>
    </mxGraphModel>
  </diagram>
  <diagram id="2L8HXFku5P1T8d6G8dEt" name="extraction">
    <mxGraphModel dx="2071" dy="626" grid="1" gridSize="10" guides="1" tooltips="1" connect="1" arrows="1" fold="1" page="1" pageScale="1" pageWidth="850" pageHeight="1100" math="0" shadow="0">
      <root>
        <mxCell id="0" />
        <mxCell id="1" parent="0" />
        <mxCell id="dIwBpxVBVpnE1E7qZdHJ-72" value="" style="rounded=1;whiteSpace=wrap;html=1;fillColor=#d5e8d4;strokeColor=#82b366;" parent="1" vertex="1">
          <mxGeometry x="-580" y="232.5" width="130" height="120" as="geometry" />
        </mxCell>
        <mxCell id="dIwBpxVBVpnE1E7qZdHJ-73" value="" style="rounded=1;whiteSpace=wrap;html=1;fillColor=none;" parent="1" vertex="1">
          <mxGeometry x="-580" y="3.130000000000001" width="130" height="348.75" as="geometry" />
        </mxCell>
        <mxCell id="dIwBpxVBVpnE1E7qZdHJ-44" value="" style="rounded=1;whiteSpace=wrap;html=1;fillColor=#d5e8d4;strokeColor=#82b366;" parent="1" vertex="1">
          <mxGeometry x="-840" y="230" width="130" height="120" as="geometry" />
        </mxCell>
        <mxCell id="dIwBpxVBVpnE1E7qZdHJ-40" value="" style="rounded=1;whiteSpace=wrap;html=1;fillColor=none;" parent="1" vertex="1">
          <mxGeometry x="-840" y="0.6300000000000008" width="130" height="348.75" as="geometry" />
        </mxCell>
        <mxCell id="dIwBpxVBVpnE1E7qZdHJ-1" value="" style="shape=image;verticalLabelPosition=bottom;labelBackgroundColor=default;verticalAlign=top;aspect=fixed;imageAspect=0;image=https://cdn3.iconfinder.com/data/icons/social-media-2169/24/social_media_social_media_logo_git-64.png;" parent="1" vertex="1">
          <mxGeometry x="-790.31" y="253.13" width="30.62" height="30.62" as="geometry" />
        </mxCell>
        <mxCell id="dIwBpxVBVpnE1E7qZdHJ-2" value="&lt;b&gt;download&lt;br&gt;version system&lt;br&gt;information&lt;br&gt;&lt;/b&gt;" style="text;html=1;align=center;verticalAlign=middle;whiteSpace=wrap;rounded=0;" parent="1" vertex="1">
          <mxGeometry x="-802.5" y="300.63" width="60" height="30" as="geometry" />
        </mxCell>
        <mxCell id="dIwBpxVBVpnE1E7qZdHJ-4" value="" style="shape=image;html=1;verticalAlign=top;verticalLabelPosition=bottom;labelBackgroundColor=#ffffff;imageAspect=0;aspect=fixed;image=https://cdn0.iconfinder.com/data/icons/phosphor-bold-vol-3-1/256/git-commit-duotone-128.png" parent="1" vertex="1">
          <mxGeometry x="-795" y="-0.6199999999999992" width="40" height="40" as="geometry" />
        </mxCell>
        <mxCell id="dIwBpxVBVpnE1E7qZdHJ-5" value="" style="shape=image;html=1;verticalAlign=top;verticalLabelPosition=bottom;labelBackgroundColor=#ffffff;imageAspect=0;aspect=fixed;image=https://cdn0.iconfinder.com/data/icons/phosphor-bold-vol-3-1/256/git-commit-duotone-128.png" parent="1" vertex="1">
          <mxGeometry x="-795" y="49.38" width="40" height="40" as="geometry" />
        </mxCell>
        <mxCell id="dIwBpxVBVpnE1E7qZdHJ-6" value="" style="shape=image;html=1;verticalAlign=top;verticalLabelPosition=bottom;labelBackgroundColor=#ffffff;imageAspect=0;aspect=fixed;image=https://cdn0.iconfinder.com/data/icons/phosphor-bold-vol-3-1/256/git-commit-duotone-128.png" parent="1" vertex="1">
          <mxGeometry x="-795" y="95.63" width="40" height="40" as="geometry" />
        </mxCell>
        <mxCell id="dIwBpxVBVpnE1E7qZdHJ-7" value="" style="shape=image;html=1;verticalAlign=top;verticalLabelPosition=bottom;labelBackgroundColor=#ffffff;imageAspect=0;aspect=fixed;image=https://cdn0.iconfinder.com/data/icons/phosphor-bold-vol-3-1/256/git-commit-duotone-128.png" parent="1" vertex="1">
          <mxGeometry x="-795" y="169.38" width="40" height="40" as="geometry" />
        </mxCell>
        <mxCell id="dIwBpxVBVpnE1E7qZdHJ-8" value="&lt;font style=&quot;font-size: 10px;&quot;&gt;&lt;b&gt;commit 1 &lt;/b&gt;&lt;i style=&quot;&quot;&gt;(CS = 8)&lt;/i&gt;&lt;br&gt;&lt;/font&gt;" style="text;html=1;align=center;verticalAlign=middle;whiteSpace=wrap;rounded=0;" parent="1" vertex="1">
          <mxGeometry x="-820" y="20" width="95" height="30" as="geometry" />
        </mxCell>
        <mxCell id="dIwBpxVBVpnE1E7qZdHJ-9" value="&lt;font style=&quot;font-size: 10px;&quot;&gt;&lt;b&gt;commit 2 &lt;/b&gt;(CS = 100)&lt;br&gt;&lt;/font&gt;" style="text;html=1;align=center;verticalAlign=middle;whiteSpace=wrap;rounded=0;" parent="1" vertex="1">
          <mxGeometry x="-820" y="77.5" width="105" height="16.25" as="geometry" />
        </mxCell>
        <mxCell id="dIwBpxVBVpnE1E7qZdHJ-10" value="&lt;font style=&quot;font-size: 10px;&quot;&gt;&lt;b&gt;commit 3 &lt;/b&gt;&lt;i&gt;(CS = 7)&lt;/i&gt;&lt;br&gt;&lt;/font&gt;" style="text;html=1;align=center;verticalAlign=middle;whiteSpace=wrap;rounded=0;" parent="1" vertex="1">
          <mxGeometry x="-822.5" y="130.63" width="95" height="16.25" as="geometry" />
        </mxCell>
        <mxCell id="dIwBpxVBVpnE1E7qZdHJ-11" value="&lt;font style=&quot;font-size: 10px;&quot;&gt;&lt;b&gt;commit n &lt;/b&gt;(CS = 2)&lt;br&gt;&lt;/font&gt;" style="text;html=1;align=center;verticalAlign=middle;whiteSpace=wrap;rounded=0;" parent="1" vertex="1">
          <mxGeometry x="-822.5" y="198.75" width="95" height="16.25" as="geometry" />
        </mxCell>
        <mxCell id="dIwBpxVBVpnE1E7qZdHJ-12" value="&lt;font style=&quot;font-size: 17px;&quot;&gt;&lt;b&gt;.&lt;br&gt;.&lt;br&gt;&lt;br&gt;&lt;/b&gt;&lt;/font&gt;" style="text;html=1;align=center;verticalAlign=middle;whiteSpace=wrap;rounded=0;" parent="1" vertex="1">
          <mxGeometry x="-805" y="149.38" width="60" height="30" as="geometry" />
        </mxCell>
        <mxCell id="dIwBpxVBVpnE1E7qZdHJ-13" value="" style="shape=image;verticalLabelPosition=bottom;labelBackgroundColor=default;verticalAlign=top;aspect=fixed;imageAspect=0;image=https://cdn4.iconfinder.com/data/icons/liny/24/git-compare-line-64.png;" parent="1" vertex="1">
          <mxGeometry x="-530" y="13.75" width="30" height="30" as="geometry" />
        </mxCell>
        <mxCell id="dIwBpxVBVpnE1E7qZdHJ-26" value="" style="shape=image;verticalLabelPosition=bottom;labelBackgroundColor=default;verticalAlign=top;aspect=fixed;imageAspect=0;image=https://cdn4.iconfinder.com/data/icons/liny/24/git-compare-line-64.png;" parent="1" vertex="1">
          <mxGeometry x="-532.5" y="51.25" width="32.5" height="32.5" as="geometry" />
        </mxCell>
        <mxCell id="dIwBpxVBVpnE1E7qZdHJ-27" value="" style="shape=image;verticalLabelPosition=bottom;labelBackgroundColor=default;verticalAlign=top;aspect=fixed;imageAspect=0;image=https://cdn4.iconfinder.com/data/icons/liny/24/git-compare-line-64.png;" parent="1" vertex="1">
          <mxGeometry x="-530" y="91.88" width="30" height="30" as="geometry" />
        </mxCell>
        <mxCell id="dIwBpxVBVpnE1E7qZdHJ-28" value="" style="shape=image;verticalLabelPosition=bottom;labelBackgroundColor=default;verticalAlign=top;aspect=fixed;imageAspect=0;image=https://cdn4.iconfinder.com/data/icons/liny/24/git-compare-line-64.png;" parent="1" vertex="1">
          <mxGeometry x="-532.5" y="172.5" width="30" height="30" as="geometry" />
        </mxCell>
        <mxCell id="dIwBpxVBVpnE1E7qZdHJ-29" value="&lt;font style=&quot;font-size: 17px;&quot;&gt;&lt;b&gt;.&lt;br&gt;.&lt;br&gt;&lt;br&gt;&lt;/b&gt;&lt;/font&gt;" style="text;html=1;align=center;verticalAlign=middle;whiteSpace=wrap;rounded=0;" parent="1" vertex="1">
          <mxGeometry x="-545" y="135.63" width="60" height="30" as="geometry" />
        </mxCell>
        <mxCell id="dIwBpxVBVpnE1E7qZdHJ-39" value="" style="shape=image;verticalLabelPosition=bottom;labelBackgroundColor=default;verticalAlign=top;aspect=fixed;imageAspect=0;image=https://cdn3.iconfinder.com/data/icons/font-awesome-solid/640/link-512.png;" parent="1" vertex="1">
          <mxGeometry x="-527.68" y="255.44" width="30.37" height="30.37" as="geometry" />
        </mxCell>
        <mxCell id="dIwBpxVBVpnE1E7qZdHJ-45" value="" style="rounded=1;whiteSpace=wrap;html=1;fillColor=#d5e8d4;strokeColor=#82b366;" parent="1" vertex="1">
          <mxGeometry x="-710" y="231.25" width="130" height="120" as="geometry" />
        </mxCell>
        <mxCell id="dIwBpxVBVpnE1E7qZdHJ-46" value="" style="rounded=1;whiteSpace=wrap;html=1;fillColor=none;" parent="1" vertex="1">
          <mxGeometry x="-710" y="1.8800000000000008" width="130" height="348.75" as="geometry" />
        </mxCell>
        <mxCell id="dIwBpxVBVpnE1E7qZdHJ-49" value="" style="shape=image;html=1;verticalAlign=top;verticalLabelPosition=bottom;labelBackgroundColor=#ffffff;imageAspect=0;aspect=fixed;image=https://cdn0.iconfinder.com/data/icons/phosphor-bold-vol-3-1/256/git-commit-duotone-128.png" parent="1" vertex="1">
          <mxGeometry x="-665" y="0.6300000000000008" width="40" height="40" as="geometry" />
        </mxCell>
        <mxCell id="dIwBpxVBVpnE1E7qZdHJ-51" value="" style="shape=image;html=1;verticalAlign=top;verticalLabelPosition=bottom;labelBackgroundColor=#ffffff;imageAspect=0;aspect=fixed;image=https://cdn0.iconfinder.com/data/icons/phosphor-bold-vol-3-1/256/git-commit-duotone-128.png" parent="1" vertex="1">
          <mxGeometry x="-665" y="96.88" width="40" height="40" as="geometry" />
        </mxCell>
        <mxCell id="dIwBpxVBVpnE1E7qZdHJ-52" value="" style="shape=image;html=1;verticalAlign=top;verticalLabelPosition=bottom;labelBackgroundColor=#ffffff;imageAspect=0;aspect=fixed;image=https://cdn0.iconfinder.com/data/icons/phosphor-bold-vol-3-1/256/git-commit-duotone-128.png" parent="1" vertex="1">
          <mxGeometry x="-665" y="170.63" width="40" height="40" as="geometry" />
        </mxCell>
        <mxCell id="dIwBpxVBVpnE1E7qZdHJ-53" value="&lt;font style=&quot;font-size: 10px;&quot;&gt;&lt;b&gt;commit 1 &lt;/b&gt;&lt;i style=&quot;&quot;&gt;(CS = 8)&lt;/i&gt;&lt;br&gt;&lt;/font&gt;" style="text;html=1;align=center;verticalAlign=middle;whiteSpace=wrap;rounded=0;" parent="1" vertex="1">
          <mxGeometry x="-690" y="21.25" width="95" height="30" as="geometry" />
        </mxCell>
        <mxCell id="dIwBpxVBVpnE1E7qZdHJ-55" value="&lt;font style=&quot;font-size: 10px;&quot;&gt;&lt;b&gt;commit 3 &lt;/b&gt;&lt;i&gt;(CS = 7)&lt;/i&gt;&lt;br&gt;&lt;/font&gt;" style="text;html=1;align=center;verticalAlign=middle;whiteSpace=wrap;rounded=0;" parent="1" vertex="1">
          <mxGeometry x="-692.5" y="131.88" width="95" height="16.25" as="geometry" />
        </mxCell>
        <mxCell id="dIwBpxVBVpnE1E7qZdHJ-56" value="&lt;font style=&quot;font-size: 10px;&quot;&gt;&lt;b&gt;commit n &lt;/b&gt;(CS = 2)&lt;br&gt;&lt;/font&gt;" style="text;html=1;align=center;verticalAlign=middle;whiteSpace=wrap;rounded=0;" parent="1" vertex="1">
          <mxGeometry x="-692.5" y="200" width="95" height="16.25" as="geometry" />
        </mxCell>
        <mxCell id="dIwBpxVBVpnE1E7qZdHJ-57" value="&lt;font style=&quot;font-size: 17px;&quot;&gt;&lt;b&gt;.&lt;br&gt;.&lt;br&gt;&lt;br&gt;&lt;/b&gt;&lt;/font&gt;" style="text;html=1;align=center;verticalAlign=middle;whiteSpace=wrap;rounded=0;" parent="1" vertex="1">
          <mxGeometry x="-675" y="150.63" width="60" height="30" as="geometry" />
        </mxCell>
        <mxCell id="dIwBpxVBVpnE1E7qZdHJ-58" value="" style="shape=image;verticalLabelPosition=bottom;labelBackgroundColor=default;verticalAlign=top;aspect=fixed;imageAspect=0;image=https://cdn0.iconfinder.com/data/icons/zondicons/20/filter-64.png;" parent="1" vertex="1">
          <mxGeometry x="-655.62" y="257.5" width="26.25" height="26.25" as="geometry" />
        </mxCell>
        <mxCell id="dIwBpxVBVpnE1E7qZdHJ-59" value="&lt;b&gt;apply&lt;br&gt;commit size filter&lt;/b&gt;&lt;br&gt;&lt;i&gt;&lt;u&gt;CS &amp;lt;= 10&lt;/u&gt;&lt;/i&gt;" style="text;html=1;align=center;verticalAlign=middle;whiteSpace=wrap;rounded=0;" parent="1" vertex="1">
          <mxGeometry x="-672.5" y="300" width="60" height="30.63" as="geometry" />
        </mxCell>
        <mxCell id="dIwBpxVBVpnE1E7qZdHJ-85" value="" style="rounded=1;whiteSpace=wrap;html=1;fillColor=#d5e8d4;strokeColor=#82b366;" parent="1" vertex="1">
          <mxGeometry x="-450" y="233.75" width="130" height="120" as="geometry" />
        </mxCell>
        <mxCell id="dIwBpxVBVpnE1E7qZdHJ-86" value="" style="rounded=1;whiteSpace=wrap;html=1;fillColor=none;" parent="1" vertex="1">
          <mxGeometry x="-450" y="4.380000000000001" width="130" height="348.75" as="geometry" />
        </mxCell>
        <mxCell id="dIwBpxVBVpnE1E7qZdHJ-94" value="" style="shape=image;verticalLabelPosition=bottom;labelBackgroundColor=default;verticalAlign=top;aspect=fixed;imageAspect=0;image=https://cdn0.iconfinder.com/data/icons/zondicons/20/filter-64.png;" parent="1" vertex="1">
          <mxGeometry x="-398.13" y="254.38" width="26.25" height="26.25" as="geometry" />
        </mxCell>
        <mxCell id="dIwBpxVBVpnE1E7qZdHJ-95" value="&lt;b style=&quot;border-color: var(--border-color);&quot;&gt;apply strength filter&lt;/b&gt;&lt;div style=&quot;border-color: var(--border-color);&quot;&gt;&lt;br&gt;&lt;/div&gt;" style="text;html=1;align=center;verticalAlign=middle;whiteSpace=wrap;rounded=0;" parent="1" vertex="1">
          <mxGeometry x="-417.5" y="302.5" width="70" height="30.63" as="geometry" />
        </mxCell>
        <mxCell id="dIwBpxVBVpnE1E7qZdHJ-96" value="&lt;b&gt;extract&lt;br&gt;dependencies&lt;br&gt;from remaining&lt;br&gt;commits&lt;br&gt;&lt;/b&gt;" style="text;html=1;align=center;verticalAlign=middle;resizable=0;points=[];autosize=1;strokeColor=none;fillColor=none;" parent="1" vertex="1">
          <mxGeometry x="-572.5" y="281.88" width="110" height="70" as="geometry" />
        </mxCell>
        <mxCell id="dIwBpxVBVpnE1E7qZdHJ-102" value="" style="shape=image;verticalLabelPosition=bottom;labelBackgroundColor=default;verticalAlign=top;aspect=fixed;imageAspect=0;image=https://cdn4.iconfinder.com/data/icons/liny/24/git-compare-line-64.png;" parent="1" vertex="1">
          <mxGeometry x="-400" y="20.63" width="30" height="30" as="geometry" />
        </mxCell>
        <mxCell id="dIwBpxVBVpnE1E7qZdHJ-103" value="" style="shape=image;verticalLabelPosition=bottom;labelBackgroundColor=default;verticalAlign=top;aspect=fixed;imageAspect=0;image=https://cdn4.iconfinder.com/data/icons/liny/24/git-compare-line-64.png;" parent="1" vertex="1">
          <mxGeometry x="-402.5" y="58.13" width="32.5" height="32.5" as="geometry" />
        </mxCell>
        <mxCell id="dIwBpxVBVpnE1E7qZdHJ-104" value="" style="shape=image;verticalLabelPosition=bottom;labelBackgroundColor=default;verticalAlign=top;aspect=fixed;imageAspect=0;image=https://cdn4.iconfinder.com/data/icons/liny/24/git-compare-line-64.png;" parent="1" vertex="1">
          <mxGeometry x="-402.5" y="179.38" width="30" height="30" as="geometry" />
        </mxCell>
        <mxCell id="dIwBpxVBVpnE1E7qZdHJ-105" value="&lt;font style=&quot;font-size: 17px;&quot;&gt;&lt;b&gt;.&lt;br&gt;.&lt;br&gt;&lt;br&gt;&lt;/b&gt;&lt;/font&gt;" style="text;html=1;align=center;verticalAlign=middle;whiteSpace=wrap;rounded=0;" parent="1" vertex="1">
          <mxGeometry x="-415" y="142.51" width="60" height="30" as="geometry" />
        </mxCell>
        <mxCell id="dIwBpxVBVpnE1E7qZdHJ-106" value="&lt;u style=&quot;border-color: var(--border-color);&quot;&gt;&lt;font style=&quot;font-size: 10px;&quot;&gt;[10,100] step: 10&lt;/font&gt;&lt;/u&gt;" style="text;html=1;align=center;verticalAlign=middle;whiteSpace=wrap;rounded=0;" parent="1" vertex="1">
          <mxGeometry x="-440" y="323.13" width="110" height="30" as="geometry" />
        </mxCell>
        <mxCell id="dIwBpxVBVpnE1E7qZdHJ-107" value="" style="endArrow=classic;html=1;rounded=0;" parent="1" edge="1">
          <mxGeometry width="50" height="50" relative="1" as="geometry">
            <mxPoint x="-840" y="360" as="sourcePoint" />
            <mxPoint x="-310" y="360" as="targetPoint" />
          </mxGeometry>
        </mxCell>
        <mxCell id="dIwBpxVBVpnE1E7qZdHJ-109" value="&lt;i&gt;workflow&lt;/i&gt;" style="text;html=1;align=center;verticalAlign=middle;whiteSpace=wrap;rounded=0;" parent="1" vertex="1">
          <mxGeometry x="-605" y="357.5" width="60" height="30" as="geometry" />
        </mxCell>
      </root>
    </mxGraphModel>
  </diagram>
  <diagram id="NKPI0mmvvA_VJrODqXZv" name="clustering-generation">
    <mxGraphModel dx="1221" dy="1726" grid="1" gridSize="10" guides="1" tooltips="1" connect="1" arrows="1" fold="1" page="1" pageScale="1" pageWidth="850" pageHeight="1100" math="0" shadow="0">
      <root>
        <mxCell id="0" />
        <mxCell id="1" parent="0" />
        <mxCell id="SL1A9DpbHMdLcB_38XvT-8" style="edgeStyle=orthogonalEdgeStyle;rounded=0;orthogonalLoop=1;jettySize=auto;html=1;exitX=1;exitY=0.5;exitDx=0;exitDy=0;entryX=0;entryY=0.25;entryDx=0;entryDy=0;" parent="1" source="SL1A9DpbHMdLcB_38XvT-1" target="SL1A9DpbHMdLcB_38XvT-7" edge="1">
          <mxGeometry relative="1" as="geometry" />
        </mxCell>
        <mxCell id="SL1A9DpbHMdLcB_38XvT-1" value="" style="shape=image;verticalLabelPosition=bottom;labelBackgroundColor=default;verticalAlign=top;aspect=fixed;imageAspect=0;image=https://cdn1.iconfinder.com/data/icons/project-management-155/32/dependency_dependencies_project_dependency_project_network_project_management-64.png;" parent="1" vertex="1">
          <mxGeometry x="40" y="-1060" width="50" height="50" as="geometry" />
        </mxCell>
        <mxCell id="SL1A9DpbHMdLcB_38XvT-2" value="&lt;b&gt;logical dependencies&amp;nbsp;&lt;/b&gt;" style="text;html=1;align=center;verticalAlign=middle;whiteSpace=wrap;rounded=0;" parent="1" vertex="1">
          <mxGeometry x="35" y="-1000" width="60" height="30" as="geometry" />
        </mxCell>
        <mxCell id="SL1A9DpbHMdLcB_38XvT-9" style="edgeStyle=orthogonalEdgeStyle;rounded=0;orthogonalLoop=1;jettySize=auto;html=1;exitX=1;exitY=0.5;exitDx=0;exitDy=0;" parent="1" source="SL1A9DpbHMdLcB_38XvT-3" target="SL1A9DpbHMdLcB_38XvT-7" edge="1">
          <mxGeometry relative="1" as="geometry" />
        </mxCell>
        <mxCell id="SL1A9DpbHMdLcB_38XvT-3" value="" style="shape=image;verticalLabelPosition=bottom;labelBackgroundColor=default;verticalAlign=top;aspect=fixed;imageAspect=0;image=https://cdn1.iconfinder.com/data/icons/project-management-155/32/dependency_dependencies_project_dependency_project_network_project_management-64.png;" parent="1" vertex="1">
          <mxGeometry x="40" y="-950" width="50" height="50" as="geometry" />
        </mxCell>
        <mxCell id="SL1A9DpbHMdLcB_38XvT-4" value="&lt;b&gt;structural dependencies&amp;nbsp;&lt;/b&gt;" style="text;html=1;align=center;verticalAlign=middle;whiteSpace=wrap;rounded=0;" parent="1" vertex="1">
          <mxGeometry x="35" y="-890" width="60" height="30" as="geometry" />
        </mxCell>
        <mxCell id="SL1A9DpbHMdLcB_38XvT-5" value="" style="rounded=1;whiteSpace=wrap;html=1;fillColor=none;strokeColor=#82b366;" parent="1" vertex="1">
          <mxGeometry x="120" y="-1060" width="290" height="200" as="geometry" />
        </mxCell>
        <mxCell id="SL1A9DpbHMdLcB_38XvT-6" value="" style="shape=image;verticalLabelPosition=bottom;labelBackgroundColor=default;verticalAlign=top;aspect=fixed;imageAspect=0;image=https://cdn4.iconfinder.com/data/icons/logos-and-brands/512/267_Python_logo-64.png;" parent="1" vertex="1">
          <mxGeometry x="140" y="-1050" width="30" height="30" as="geometry" />
        </mxCell>
        <mxCell id="SL1A9DpbHMdLcB_38XvT-16" style="edgeStyle=orthogonalEdgeStyle;rounded=0;orthogonalLoop=1;jettySize=auto;html=1;exitX=1;exitY=0.5;exitDx=0;exitDy=0;entryX=0;entryY=0.5;entryDx=0;entryDy=0;" parent="1" source="SL1A9DpbHMdLcB_38XvT-7" target="SL1A9DpbHMdLcB_38XvT-11" edge="1">
          <mxGeometry relative="1" as="geometry" />
        </mxCell>
        <mxCell id="SL1A9DpbHMdLcB_38XvT-7" value="" style="shape=image;verticalLabelPosition=bottom;labelBackgroundColor=default;verticalAlign=top;aspect=fixed;imageAspect=0;image=https://cdn3.iconfinder.com/data/icons/education-science-vol-2-outline/512/matrix_math_education_binary-64.png;" parent="1" vertex="1">
          <mxGeometry x="160" y="-1000" width="64" height="64" as="geometry" />
        </mxCell>
        <mxCell id="SL1A9DpbHMdLcB_38XvT-10" value="" style="shape=image;verticalLabelPosition=bottom;labelBackgroundColor=default;verticalAlign=top;aspect=fixed;imageAspect=0;image=https://cdn3.iconfinder.com/data/icons/customer-support-24/64/customer-satisfaction-system-review-evaluation-64.png;" parent="1" vertex="1">
          <mxGeometry x="340" y="-993" width="50" height="50" as="geometry" />
        </mxCell>
        <mxCell id="SL1A9DpbHMdLcB_38XvT-17" style="edgeStyle=orthogonalEdgeStyle;rounded=0;orthogonalLoop=1;jettySize=auto;html=1;exitX=1;exitY=0.5;exitDx=0;exitDy=0;entryX=0;entryY=0.5;entryDx=0;entryDy=0;" parent="1" source="SL1A9DpbHMdLcB_38XvT-11" target="SL1A9DpbHMdLcB_38XvT-10" edge="1">
          <mxGeometry relative="1" as="geometry" />
        </mxCell>
        <mxCell id="SL1A9DpbHMdLcB_38XvT-11" value="" style="shape=image;verticalLabelPosition=bottom;labelBackgroundColor=default;verticalAlign=top;aspect=fixed;imageAspect=0;image=https://cdn3.iconfinder.com/data/icons/artificial-intelligence-vo-1/64/Data_Clustering-64.png;" parent="1" vertex="1">
          <mxGeometry x="250" y="-1000" width="64" height="64" as="geometry" />
        </mxCell>
        <mxCell id="SL1A9DpbHMdLcB_38XvT-12" value="build dependency matrix" style="text;html=1;align=center;verticalAlign=middle;whiteSpace=wrap;rounded=0;" parent="1" vertex="1">
          <mxGeometry x="160" y="-920" width="60" height="30" as="geometry" />
        </mxCell>
        <mxCell id="SL1A9DpbHMdLcB_38XvT-13" value="generate clustering solution" style="text;html=1;align=center;verticalAlign=middle;whiteSpace=wrap;rounded=0;" parent="1" vertex="1">
          <mxGeometry x="254" y="-920" width="60" height="30" as="geometry" />
        </mxCell>
        <mxCell id="SL1A9DpbHMdLcB_38XvT-15" value="measure MQ" style="text;html=1;align=center;verticalAlign=middle;whiteSpace=wrap;rounded=0;" parent="1" vertex="1">
          <mxGeometry x="330" y="-920" width="60" height="30" as="geometry" />
        </mxCell>
      </root>
    </mxGraphModel>
  </diagram>
  <diagram id="bctOTxAq01v8ZgHT4qCs" name="extraction2">
    <mxGraphModel dx="2071" dy="626" grid="1" gridSize="10" guides="1" tooltips="1" connect="1" arrows="1" fold="1" page="1" pageScale="1" pageWidth="850" pageHeight="1100" math="0" shadow="0">
      <root>
        <mxCell id="0" />
        <mxCell id="1" parent="0" />
        <mxCell id="do53eu9COUibApGh-1bS-1" value="" style="rounded=1;whiteSpace=wrap;html=1;fillColor=#d5e8d4;strokeColor=#82b366;" vertex="1" parent="1">
          <mxGeometry x="-580" y="2.5" width="130" height="120" as="geometry" />
        </mxCell>
        <mxCell id="do53eu9COUibApGh-1bS-3" value="" style="rounded=1;whiteSpace=wrap;html=1;fillColor=#d5e8d4;strokeColor=#82b366;" vertex="1" parent="1">
          <mxGeometry x="-840" width="130" height="120" as="geometry" />
        </mxCell>
        <mxCell id="do53eu9COUibApGh-1bS-5" value="" style="shape=image;verticalLabelPosition=bottom;labelBackgroundColor=default;verticalAlign=top;aspect=fixed;imageAspect=0;image=https://cdn3.iconfinder.com/data/icons/social-media-2169/24/social_media_social_media_logo_git-64.png;" vertex="1" parent="1">
          <mxGeometry x="-790.31" y="23.129999999999995" width="30.62" height="30.62" as="geometry" />
        </mxCell>
        <mxCell id="do53eu9COUibApGh-1bS-6" value="&lt;b&gt;download&lt;br&gt;version system&lt;br&gt;information&lt;br&gt;&lt;/b&gt;" style="text;html=1;align=center;verticalAlign=middle;whiteSpace=wrap;rounded=0;" vertex="1" parent="1">
          <mxGeometry x="-802.5" y="70.63" width="60" height="30" as="geometry" />
        </mxCell>
        <mxCell id="do53eu9COUibApGh-1bS-21" value="" style="shape=image;verticalLabelPosition=bottom;labelBackgroundColor=default;verticalAlign=top;aspect=fixed;imageAspect=0;image=https://cdn3.iconfinder.com/data/icons/font-awesome-solid/640/link-512.png;" vertex="1" parent="1">
          <mxGeometry x="-527.68" y="25.439999999999998" width="30.37" height="30.37" as="geometry" />
        </mxCell>
        <mxCell id="do53eu9COUibApGh-1bS-22" value="" style="rounded=1;whiteSpace=wrap;html=1;fillColor=#d5e8d4;strokeColor=#82b366;" vertex="1" parent="1">
          <mxGeometry x="-710" y="1.25" width="130" height="120" as="geometry" />
        </mxCell>
        <mxCell id="do53eu9COUibApGh-1bS-31" value="" style="shape=image;verticalLabelPosition=bottom;labelBackgroundColor=default;verticalAlign=top;aspect=fixed;imageAspect=0;image=https://cdn0.iconfinder.com/data/icons/zondicons/20/filter-64.png;" vertex="1" parent="1">
          <mxGeometry x="-655.62" y="27.5" width="26.25" height="26.25" as="geometry" />
        </mxCell>
        <mxCell id="do53eu9COUibApGh-1bS-32" value="&lt;b&gt;apply&lt;br&gt;commit size filter&lt;/b&gt;&lt;br&gt;&lt;i&gt;&lt;u&gt;CS &amp;lt;= 10&lt;/u&gt;&lt;/i&gt;" style="text;html=1;align=center;verticalAlign=middle;whiteSpace=wrap;rounded=0;" vertex="1" parent="1">
          <mxGeometry x="-672.5" y="70" width="60" height="30.63" as="geometry" />
        </mxCell>
        <mxCell id="do53eu9COUibApGh-1bS-33" value="" style="rounded=1;whiteSpace=wrap;html=1;fillColor=#d5e8d4;strokeColor=#82b366;" vertex="1" parent="1">
          <mxGeometry x="-450" y="3.75" width="130" height="120" as="geometry" />
        </mxCell>
        <mxCell id="do53eu9COUibApGh-1bS-35" value="" style="shape=image;verticalLabelPosition=bottom;labelBackgroundColor=default;verticalAlign=top;aspect=fixed;imageAspect=0;image=https://cdn0.iconfinder.com/data/icons/zondicons/20/filter-64.png;" vertex="1" parent="1">
          <mxGeometry x="-398.13" y="24.379999999999995" width="26.25" height="26.25" as="geometry" />
        </mxCell>
        <mxCell id="do53eu9COUibApGh-1bS-36" value="&lt;b style=&quot;border-color: var(--border-color);&quot;&gt;apply strength filter&lt;/b&gt;&lt;div style=&quot;border-color: var(--border-color);&quot;&gt;&lt;br&gt;&lt;/div&gt;" style="text;html=1;align=center;verticalAlign=middle;whiteSpace=wrap;rounded=0;" vertex="1" parent="1">
          <mxGeometry x="-417.5" y="72.5" width="70" height="30.63" as="geometry" />
        </mxCell>
        <mxCell id="do53eu9COUibApGh-1bS-37" value="&lt;b&gt;extract&lt;br&gt;dependencies&lt;br&gt;from remaining&lt;br&gt;commits&lt;br&gt;&lt;/b&gt;" style="text;html=1;align=center;verticalAlign=middle;resizable=0;points=[];autosize=1;strokeColor=none;fillColor=none;" vertex="1" parent="1">
          <mxGeometry x="-572.5" y="51.879999999999995" width="110" height="70" as="geometry" />
        </mxCell>
        <mxCell id="do53eu9COUibApGh-1bS-42" value="&lt;u style=&quot;border-color: var(--border-color);&quot;&gt;&lt;font style=&quot;font-size: 10px;&quot;&gt;[10,100] step: 10&lt;/font&gt;&lt;/u&gt;" style="text;html=1;align=center;verticalAlign=middle;whiteSpace=wrap;rounded=0;" vertex="1" parent="1">
          <mxGeometry x="-440" y="93.13" width="110" height="30" as="geometry" />
        </mxCell>
        <mxCell id="do53eu9COUibApGh-1bS-43" value="" style="endArrow=classic;html=1;rounded=0;" edge="1" parent="1">
          <mxGeometry width="50" height="50" relative="1" as="geometry">
            <mxPoint x="-840" y="130" as="sourcePoint" />
            <mxPoint x="-310" y="130" as="targetPoint" />
          </mxGeometry>
        </mxCell>
        <mxCell id="do53eu9COUibApGh-1bS-44" value="&lt;i&gt;workflow&lt;/i&gt;" style="text;html=1;align=center;verticalAlign=middle;whiteSpace=wrap;rounded=0;" vertex="1" parent="1">
          <mxGeometry x="-605" y="127.5" width="60" height="30" as="geometry" />
        </mxCell>
      </root>
    </mxGraphModel>
  </diagram>
</mxfile>
